<?xml version="1.0" encoding="UTF-8" standalone="no"?>
<!DOCTYPE svg PUBLIC "-//W3C//DTD SVG 1.1//EN"
 "http://www.w3.org/Graphics/SVG/1.1/DTD/svg11.dtd">
<!-- Generated by graphviz version 11.0.0 (20240428.1522)
 -->
<!-- Title: dependency&#45;cruiser output Pages: 1 -->
<svg width="578pt" height="340pt"
 viewBox="0.00 0.00 577.50 340.00" xmlns="http://www.w3.org/2000/svg" xmlns:xlink="http://www.w3.org/1999/xlink">
<g id="graph0" class="graph" transform="scale(1 1) rotate(0) translate(4 336)">
<title>dependency&#45;cruiser output</title>
<polygon fill="white" stroke="none" points="-4,4 -4,-336 573.5,-336 573.5,4 -4,4"/>
<g id="clust1" class="cluster">
<title>cluster_src</title>
<path fill="#ffffff" stroke="black" stroke-width="2" d="M20,-8C20,-8 549.5,-8 549.5,-8 555.5,-8 561.5,-14 561.5,-20 561.5,-20 561.5,-312 561.5,-312 561.5,-318 555.5,-324 549.5,-324 549.5,-324 20,-324 20,-324 14,-324 8,-318 8,-312 8,-312 8,-20 8,-20 8,-14 14,-8 20,-8"/>
<text text-anchor="middle" x="284.75" y="-311.45" font-family="Helvetica,sans-Serif" font-weight="bold" font-size="9.00">src</text>
</g>
<g id="clust2" class="cluster">
<title>cluster_src/cli</title>
<path fill="#ffffff" stroke="black" stroke-width="2" d="M28,-104C28,-104 74,-104 74,-104 80,-104 86,-110 86,-116 86,-116 86,-144 86,-144 86,-150 80,-156 74,-156 74,-156 28,-156 28,-156 22,-156 16,-150 16,-144 16,-144 16,-116 16,-116 16,-110 22,-104 28,-104"/>
<text text-anchor="middle" x="51" y="-143.45" font-family="Helvetica,sans-Serif" font-weight="bold" font-size="9.00">cli</text>
</g>
<g id="clust3" class="cluster">
<title>cluster_src/core</title>
<path fill="#ffffff" stroke="black" stroke-width="2" d="M106,-16C106,-16 460.25,-16 460.25,-16 466.25,-16 472.25,-22 472.25,-28 472.25,-28 472.25,-144 472.25,-144 472.25,-150 466.25,-156 460.25,-156 460.25,-156 106,-156 106,-156 100,-156 94,-150 94,-144 94,-144 94,-28 94,-28 94,-22 100,-16 106,-16"/>
<text text-anchor="middle" x="283.12" y="-143.45" font-family="Helvetica,sans-Serif" font-weight="bold" font-size="9.00">core</text>
</g>
<g id="clust4" class="cluster">
<title>cluster_src/types</title>
<path fill="#ffffff" stroke="black" stroke-width="2" d="M492.25,-194C492.25,-194 541.5,-194 541.5,-194 547.5,-194 553.5,-200 553.5,-206 553.5,-206 553.5,-234 553.5,-234 553.5,-240 547.5,-246 541.5,-246 541.5,-246 492.25,-246 492.25,-246 486.25,-246 480.25,-240 480.25,-234 480.25,-234 480.25,-206 480.25,-206 480.25,-200 486.25,-194 492.25,-194"/>
<text text-anchor="middle" x="516.88" y="-233.45" font-family="Helvetica,sans-Serif" font-weight="bold" font-size="9.00">types</text>
</g>
<g id="clust5" class="cluster">
<title>cluster_src/utils</title>
<path fill="#ffffff" stroke="black" stroke-width="2" d="M399.12,-164C399.12,-164 445.12,-164 445.12,-164 451.12,-164 457.12,-170 457.12,-176 457.12,-176 457.12,-234 457.12,-234 457.12,-240 451.12,-246 445.12,-246 445.12,-246 399.12,-246 399.12,-246 393.12,-246 387.12,-240 387.12,-234 387.12,-234 387.12,-176 387.12,-176 387.12,-170 393.12,-164 399.12,-164"/>
<text text-anchor="middle" x="422.12" y="-233.45" font-family="Helvetica,sans-Serif" font-weight="bold" font-size="9.00">utils</text>
</g>
<!-- src/cli/cli.ts -->
<g id="node1" class="node">
<title>src/cli/cli.ts</title>
<g id="a_node1"><a xlink:href="src/cli/cli.ts" xlink:title="cli.ts">
<path fill="#ddfeff" stroke="black" d="M72.08,-129.88C72.08,-129.88 29.92,-129.88 29.92,-129.88 26.96,-129.88 24,-126.92 24,-123.96 24,-123.96 24,-118.04 24,-118.04 24,-115.08 26.96,-112.12 29.92,-112.12 29.92,-112.12 72.08,-112.12 72.08,-112.12 75.04,-112.12 78,-115.08 78,-118.04 78,-118.04 78,-123.96 78,-123.96 78,-126.92 75.04,-129.88 72.08,-129.88"/>
<text text-anchor="start" x="42" y="-117.33" font-family="Helvetica,sans-Serif" font-size="9.00">cli.ts</text>
</a>
</g>
</g>
<!-- src/core/app.ts -->
<g id="node2" class="node">
<title>src/core/app.ts</title>
<g id="a_node2"><a xlink:href="src/core/app.ts" xlink:title="app.ts">
<path fill="#ddfeff" stroke="black" d="M150.08,-129.88C150.08,-129.88 107.92,-129.88 107.92,-129.88 104.96,-129.88 102,-126.92 102,-123.96 102,-123.96 102,-118.04 102,-118.04 102,-115.08 104.96,-112.12 107.92,-112.12 107.92,-112.12 150.08,-112.12 150.08,-112.12 153.04,-112.12 156,-115.08 156,-118.04 156,-118.04 156,-123.96 156,-123.96 156,-126.92 153.04,-129.88 150.08,-129.88"/>
<text text-anchor="start" x="116.62" y="-117.33" font-family="Helvetica,sans-Serif" font-size="9.00">app.ts</text>
</a>
</g>
</g>
<!-- src/cli/cli.ts&#45;&gt;src/core/app.ts -->
<g id="edge1" class="edge">
<title>src/cli/cli.ts&#45;&gt;src/core/app.ts</title>
<path fill="none" stroke="#000000" stroke-width="2" stroke-opacity="0.200000" d="M78.15,-121C82.88,-121 87.87,-121 92.8,-121"/>
<polygon fill="#000000" fill-opacity="0.200000" stroke="#000000" stroke-width="2" stroke-opacity="0.200000" points="92.51,-123.1 98.51,-121 92.51,-118.9 92.51,-123.1"/>
</g>
<!-- src/types/schema.ts -->
<g id="node3" class="node">
<title>src/types/schema.ts</title>
<g id="a_node3"><a xlink:href="src/types/schema.ts" xlink:title="schema.ts">
<path fill="#ddfeff" stroke="black" d="M539.58,-219.88C539.58,-219.88 494.17,-219.88 494.17,-219.88 491.21,-219.88 488.25,-216.92 488.25,-213.96 488.25,-213.96 488.25,-208.04 488.25,-208.04 488.25,-205.08 491.21,-202.12 494.17,-202.12 494.17,-202.12 539.58,-202.12 539.58,-202.12 542.54,-202.12 545.5,-205.08 545.5,-208.04 545.5,-208.04 545.5,-213.96 545.5,-213.96 545.5,-216.92 542.54,-219.88 539.58,-219.88"/>
<text text-anchor="start" x="496.25" y="-207.32" font-family="Helvetica,sans-Serif" font-size="9.00">schema.ts</text>
</a>
</g>
</g>
<!-- src/core/app.ts&#45;&gt;src/types/schema.ts -->
<g id="edge2" class="edge">
<title>src/core/app.ts&#45;&gt;src/types/schema.ts</title>
<path fill="none" stroke="#000000" stroke-width="2" stroke-opacity="0.200000" d="M152.02,-130.22C153.48,-131.35 154.83,-132.61 156,-134 169.09,-149.63 155.44,-162.77 169,-178 236.79,-254.15 280.11,-247.59 380,-268 420.17,-276.21 435.49,-286.16 472.25,-268 489.09,-259.68 501.22,-241.4 508.35,-227.77"/>
<polygon fill="#000000" fill-opacity="0.200000" stroke="#000000" stroke-width="2" stroke-opacity="0.200000" points="510.07,-229.05 510.81,-222.74 506.29,-227.2 510.07,-229.05"/>
</g>
<!-- src/utils/errors.ts -->
<g id="node4" class="node">
<title>src/utils/errors.ts</title>
<g id="a_node4"><a xlink:href="src/utils/errors.ts" xlink:title="errors.ts">
<path fill="#ddfeff" stroke="black" d="M443.21,-219.88C443.21,-219.88 401.04,-219.88 401.04,-219.88 398.08,-219.88 395.12,-216.92 395.12,-213.96 395.12,-213.96 395.12,-208.04 395.12,-208.04 395.12,-205.08 398.08,-202.12 401.04,-202.12 401.04,-202.12 443.21,-202.12 443.21,-202.12 446.17,-202.12 449.12,-205.08 449.12,-208.04 449.12,-208.04 449.12,-213.96 449.12,-213.96 449.12,-216.92 446.17,-219.88 443.21,-219.88"/>
<text text-anchor="start" x="405.62" y="-207.32" font-family="Helvetica,sans-Serif" font-size="9.00">errors.ts</text>
</a>
</g>
</g>
<!-- src/core/app.ts&#45;&gt;src/utils/errors.ts -->
<g id="edge3" class="edge">
<title>src/core/app.ts&#45;&gt;src/utils/errors.ts</title>
<path fill="none" stroke="#000000" stroke-width="2" stroke-opacity="0.200000" d="M151.01,-130.35C152.77,-131.48 154.46,-132.69 156,-134 163.52,-140.39 160.79,-146.53 169,-152 236.59,-197.02 334.34,-207.88 386.02,-210.38"/>
<polygon fill="#000000" fill-opacity="0.200000" stroke="#000000" stroke-width="2" stroke-opacity="0.200000" points="385.71,-212.46 391.8,-210.61 385.89,-208.27 385.71,-212.46"/>
</g>
<!-- src/utils/logger.ts -->
<g id="node5" class="node">
<title>src/utils/logger.ts</title>
<g id="a_node5"><a xlink:href="src/utils/logger.ts" xlink:title="logger.ts">
<path fill="#ddfeff" stroke="black" d="M443.21,-189.88C443.21,-189.88 401.04,-189.88 401.04,-189.88 398.08,-189.88 395.12,-186.92 395.12,-183.96 395.12,-183.96 395.12,-178.04 395.12,-178.04 395.12,-175.08 398.08,-172.12 401.04,-172.12 401.04,-172.12 443.21,-172.12 443.21,-172.12 446.17,-172.12 449.12,-175.08 449.12,-178.04 449.12,-178.04 449.12,-183.96 449.12,-183.96 449.12,-186.92 446.17,-189.88 443.21,-189.88"/>
<text text-anchor="start" x="404.5" y="-177.32" font-family="Helvetica,sans-Serif" font-size="9.00">logger.ts</text>
</a>
</g>
</g>
<!-- src/core/app.ts&#45;&gt;src/utils/logger.ts -->
<g id="edge4" class="edge">
<title>src/core/app.ts&#45;&gt;src/utils/logger.ts</title>
<path fill="none" stroke="#000000" stroke-width="2" stroke-opacity="0.200000" d="M152.04,-130.25C157.52,-132.34 163.42,-134.4 169,-136 245.05,-157.79 337.18,-171.03 386.3,-177.08"/>
<polygon fill="#000000" fill-opacity="0.200000" stroke="#000000" stroke-width="2" stroke-opacity="0.200000" points="385.74,-179.12 391.95,-177.76 386.25,-174.95 385.74,-179.12"/>
</g>
<!-- src/core/keyManager.ts -->
<g id="node6" class="node">
<title>src/core/keyManager.ts</title>
<g id="a_node6"><a xlink:href="src/core/keyManager.ts" xlink:title="keyManager.ts">
<path fill="#ddfeff" stroke="black" d="M256.71,-129.88C256.71,-129.88 192.54,-129.88 192.54,-129.88 189.58,-129.88 186.62,-126.92 186.62,-123.96 186.62,-123.96 186.62,-118.04 186.62,-118.04 186.62,-115.08 189.58,-112.12 192.54,-112.12 192.54,-112.12 256.71,-112.12 256.71,-112.12 259.67,-112.12 262.62,-115.08 262.62,-118.04 262.62,-118.04 262.62,-123.96 262.62,-123.96 262.62,-126.92 259.67,-129.88 256.71,-129.88"/>
<text text-anchor="start" x="194.62" y="-117.33" font-family="Helvetica,sans-Serif" font-size="9.00">keyManager.ts</text>
</a>
</g>
</g>
<!-- src/core/app.ts&#45;&gt;src/core/keyManager.ts -->
<g id="edge5" class="edge">
<title>src/core/app.ts&#45;&gt;src/core/keyManager.ts</title>
<path fill="none" stroke="#000000" stroke-width="2" stroke-opacity="0.200000" d="M156.08,-121C162.77,-121 170.17,-121 177.54,-121"/>
<polygon fill="#000000" fill-opacity="0.200000" stroke="#000000" stroke-width="2" stroke-opacity="0.200000" points="177.11,-123.1 183.11,-121 177.11,-118.9 177.11,-123.1"/>
</g>
<!-- src/core/networkConfig.ts -->
<g id="node7" class="node">
<title>src/core/networkConfig.ts</title>
<g id="a_node7"><a xlink:href="src/core/networkConfig.ts" xlink:title="networkConfig.ts">
<path fill="#ddfeff" stroke="black" d="M458.33,-99.88C458.33,-99.88 385.92,-99.88 385.92,-99.88 382.96,-99.88 380,-96.92 380,-93.96 380,-93.96 380,-88.04 380,-88.04 380,-85.08 382.96,-82.12 385.92,-82.12 385.92,-82.12 458.33,-82.12 458.33,-82.12 461.29,-82.12 464.25,-85.08 464.25,-88.04 464.25,-88.04 464.25,-93.96 464.25,-93.96 464.25,-96.92 461.29,-99.88 458.33,-99.88"/>
<text text-anchor="start" x="388" y="-87.33" font-family="Helvetica,sans-Serif" font-size="9.00">networkConfig.ts</text>
</a>
</g>
</g>
<!-- src/core/app.ts&#45;&gt;src/core/networkConfig.ts -->
<g id="edge6" class="edge">
<title>src/core/app.ts&#45;&gt;src/core/networkConfig.ts</title>
<path fill="none" stroke="#000000" stroke-width="2" stroke-opacity="0.200000" d="M135.78,-111.75C142.56,-101.61 154.72,-85.52 169,-76 217.39,-43.76 235.84,-44.23 293.25,-35 325.61,-29.8 336.83,-22.2 367,-35 385.73,-42.95 401.14,-60.9 410.66,-74.35"/>
<polygon fill="#000000" fill-opacity="0.200000" stroke="#000000" stroke-width="2" stroke-opacity="0.200000" points="408.79,-75.32 413.88,-79.13 412.27,-72.98 408.79,-75.32"/>
</g>
<!-- src/core/transactionProcessor.ts -->
<g id="node8" class="node">
<title>src/core/transactionProcessor.ts</title>
<g id="a_node8"><a xlink:href="src/core/transactionProcessor.ts" xlink:title="transactionProcessor.ts">
<path fill="#ddfeff" stroke="black" d="M274.33,-99.88C274.33,-99.88 174.92,-99.88 174.92,-99.88 171.96,-99.88 169,-96.92 169,-93.96 169,-93.96 169,-88.04 169,-88.04 169,-85.08 171.96,-82.12 174.92,-82.12 174.92,-82.12 274.33,-82.12 274.33,-82.12 277.29,-82.12 280.25,-85.08 280.25,-88.04 280.25,-88.04 280.25,-93.96 280.25,-93.96 280.25,-96.92 277.29,-99.88 274.33,-99.88"/>
<text text-anchor="start" x="177" y="-87.33" font-family="Helvetica,sans-Serif" font-size="9.00">transactionProcessor.ts</text>
</a>
</g>
</g>
<!-- src/core/app.ts&#45;&gt;src/core/transactionProcessor.ts -->
<g id="edge7" class="edge">
<title>src/core/app.ts&#45;&gt;src/core/transactionProcessor.ts</title>
<path fill="none" stroke="#000000" stroke-width="2" stroke-opacity="0.200000" d="M152.96,-111.73C158.2,-109.74 163.76,-107.72 169,-106 172.27,-104.93 175.67,-103.86 179.09,-102.83"/>
<polygon fill="#000000" fill-opacity="0.200000" stroke="#000000" stroke-width="2" stroke-opacity="0.200000" points="179.55,-104.89 184.72,-101.19 178.37,-100.86 179.55,-104.89"/>
</g>
<!-- src/utils/errors.ts&#45;&gt;src/types/schema.ts -->
<g id="edge32" class="edge">
<title>src/utils/errors.ts&#45;&gt;src/types/schema.ts</title>
<path fill="none" stroke="#000000" stroke-width="2" stroke-opacity="0.200000" d="M449.46,-211C458.64,-211 469.12,-211 479.01,-211"/>
<polygon fill="#000000" fill-opacity="0.200000" stroke="#000000" stroke-width="2" stroke-opacity="0.200000" points="478.83,-213.1 484.83,-211 478.83,-208.9 478.83,-213.1"/>
</g>
<!-- src/core/keyManager.ts&#45;&gt;src/types/schema.ts -->
<g id="edge11" class="edge">
<title>src/core/keyManager.ts&#45;&gt;src/types/schema.ts</title>
<path fill="none" stroke="#000000" stroke-width="2" stroke-opacity="0.200000" d="M231.89,-130.33C250.54,-157.1 308.82,-233.86 380,-259 418.66,-272.65 434.76,-275.59 472.25,-259 486.67,-252.62 498.37,-238.86 506,-227.7"/>
<polygon fill="#000000" fill-opacity="0.200000" stroke="#000000" stroke-width="2" stroke-opacity="0.200000" points="507.72,-228.91 509.2,-222.73 504.19,-226.64 507.72,-228.91"/>
</g>
<!-- src/core/keyManager.ts&#45;&gt;src/utils/errors.ts -->
<g id="edge12" class="edge">
<title>src/core/keyManager.ts&#45;&gt;src/utils/errors.ts</title>
<path fill="none" stroke="#000000" stroke-width="2" stroke-opacity="0.200000" d="M240.36,-130.24C253.86,-138.53 274.53,-150.77 293.25,-160 330.69,-178.47 341.1,-180.84 380,-196 382.26,-196.88 384.59,-197.77 386.94,-198.66"/>
<polygon fill="#000000" fill-opacity="0.200000" stroke="#000000" stroke-width="2" stroke-opacity="0.200000" points="385.76,-200.46 392.12,-200.59 387.23,-196.53 385.76,-200.46"/>
</g>
<!-- src/core/keyManager.ts&#45;&gt;src/utils/logger.ts -->
<g id="edge13" class="edge">
<title>src/core/keyManager.ts&#45;&gt;src/utils/logger.ts</title>
<path fill="none" stroke="#000000" stroke-width="2" stroke-opacity="0.200000" d="M247.95,-130.28C261.03,-135.54 277.93,-142.04 293.25,-147 302.16,-149.89 351.67,-162.91 386.39,-171.97"/>
<polygon fill="#000000" fill-opacity="0.200000" stroke="#000000" stroke-width="2" stroke-opacity="0.200000" points="385.61,-173.94 391.94,-173.42 386.67,-169.87 385.61,-173.94"/>
</g>
<!-- src/core/networkConfig.ts&#45;&gt;src/types/schema.ts -->
<g id="edge14" class="edge">
<title>src/core/networkConfig.ts&#45;&gt;src/types/schema.ts</title>
<path fill="none" stroke="#000000" stroke-width="2" stroke-opacity="0.200000" d="M456.19,-100.32C462.04,-103.07 467.7,-106.56 472.25,-111 495.52,-133.7 507.19,-170.9 512.36,-192.96"/>
<polygon fill="#000000" fill-opacity="0.200000" stroke="#000000" stroke-width="2" stroke-opacity="0.200000" points="510.28,-193.29 513.61,-198.71 514.39,-192.4 510.28,-193.29"/>
</g>
<!-- src/core/networkConfig.ts&#45;&gt;src/utils/errors.ts -->
<g id="edge15" class="edge">
<title>src/core/networkConfig.ts&#45;&gt;src/utils/errors.ts</title>
<path fill="none" stroke="#000000" stroke-width="2" stroke-opacity="0.200000" d="M413.91,-99.96C402.24,-113.36 381.42,-139.94 373.5,-167 369.79,-179.68 368.7,-189.17 380,-196 382.12,-197.28 384.36,-198.47 386.67,-199.58"/>
<polygon fill="#000000" fill-opacity="0.200000" stroke="#000000" stroke-width="2" stroke-opacity="0.200000" points="385.53,-201.38 391.87,-201.83 387.19,-197.52 385.53,-201.38"/>
</g>
<!-- src/core/transactionProcessor.ts&#45;&gt;src/types/schema.ts -->
<g id="edge20" class="edge">
<title>src/core/transactionProcessor.ts&#45;&gt;src/types/schema.ts</title>
<path fill="none" stroke="#000000" stroke-width="2" stroke-opacity="0.200000" d="M272.67,-100.36C275.41,-101.96 277.97,-103.83 280.25,-106 293.77,-118.91 282.22,-130.91 293.25,-146 317.06,-178.59 344.17,-165.71 367,-199 379.98,-217.94 361.84,-234.95 380,-249 396.22,-261.54 453.05,-256.19 472.25,-249 484.15,-244.54 494.95,-235.2 502.83,-226.9"/>
<polygon fill="#000000" fill-opacity="0.200000" stroke="#000000" stroke-width="2" stroke-opacity="0.200000" points="504.27,-228.43 506.7,-222.56 501.14,-225.64 504.27,-228.43"/>
</g>
<!-- src/core/transactionProcessor.ts&#45;&gt;src/utils/logger.ts -->
<g id="edge21" class="edge">
<title>src/core/transactionProcessor.ts&#45;&gt;src/utils/logger.ts</title>
<path fill="none" stroke="#000000" stroke-width="2" stroke-opacity="0.200000" d="M271.92,-100.33C274.91,-101.93 277.73,-103.81 280.25,-106 291.22,-115.53 281.78,-127.07 293.25,-136 319.45,-156.4 336.84,-134.1 367,-148 373.87,-151.17 373.74,-154.75 380,-159 384.38,-161.97 389.2,-164.86 393.95,-167.52"/>
<polygon fill="#000000" fill-opacity="0.200000" stroke="#000000" stroke-width="2" stroke-opacity="0.200000" points="392.85,-169.31 399.13,-170.3 394.84,-165.61 392.85,-169.31"/>
</g>
<!-- src/core/transactionProcessor.ts&#45;&gt;src/core/networkConfig.ts -->
<g id="edge23" class="edge">
<title>src/core/transactionProcessor.ts&#45;&gt;src/core/networkConfig.ts</title>
<path fill="none" stroke="#000000" stroke-width="2" stroke-opacity="0.200000" d="M235.19,-81.91C247.49,-70.92 270.03,-53.02 293.25,-46 324.63,-36.51 336.17,-34.86 367,-46 383.22,-51.86 398,-64.93 408,-75.48"/>
<polygon fill="#000000" fill-opacity="0.200000" stroke="#000000" stroke-width="2" stroke-opacity="0.200000" points="406.24,-76.67 411.82,-79.71 409.35,-73.85 406.24,-76.67"/>
</g>
<!-- src/core/broadcaster.ts -->
<g id="node9" class="node">
<title>src/core/broadcaster.ts</title>
<g id="a_node9"><a xlink:href="src/core/broadcaster.ts" xlink:title="broadcaster.ts">
<path fill="#ddfeff" stroke="black" d="M361.08,-99.88C361.08,-99.88 299.17,-99.88 299.17,-99.88 296.21,-99.88 293.25,-96.92 293.25,-93.96 293.25,-93.96 293.25,-88.04 293.25,-88.04 293.25,-85.08 296.21,-82.12 299.17,-82.12 299.17,-82.12 361.08,-82.12 361.08,-82.12 364.04,-82.12 367,-85.08 367,-88.04 367,-88.04 367,-93.96 367,-93.96 367,-96.92 364.04,-99.88 361.08,-99.88"/>
<text text-anchor="start" x="301.25" y="-87.33" font-family="Helvetica,sans-Serif" font-size="9.00">broadcaster.ts</text>
</a>
</g>
</g>
<!-- src/core/transactionProcessor.ts&#45;&gt;src/core/broadcaster.ts -->
<g id="edge22" class="edge">
<title>src/core/transactionProcessor.ts&#45;&gt;src/core/broadcaster.ts</title>
<path fill="none" stroke="#000000" stroke-width="2" stroke-opacity="0.200000" d="M280.71,-91C281.88,-91 283.04,-91 284.2,-91"/>
<polygon fill="#000000" fill-opacity="0.200000" stroke="#000000" stroke-width="2" stroke-opacity="0.200000" points="283.94,-93.1 289.94,-91 283.94,-88.9 283.94,-93.1"/>
</g>
<!-- src/core/nonceRetry.ts -->
<g id="node10" class="node">
<title>src/core/nonceRetry.ts</title>
<g id="a_node10"><a xlink:href="src/core/nonceRetry.ts" xlink:title="nonceRetry.ts">
<path fill="#ddfeff" stroke="black" d="M360.33,-69.88C360.33,-69.88 299.92,-69.88 299.92,-69.88 296.96,-69.88 294,-66.92 294,-63.96 294,-63.96 294,-58.04 294,-58.04 294,-55.08 296.96,-52.12 299.92,-52.12 299.92,-52.12 360.33,-52.12 360.33,-52.12 363.29,-52.12 366.25,-55.08 366.25,-58.04 366.25,-58.04 366.25,-63.96 366.25,-63.96 366.25,-66.92 363.29,-69.88 360.33,-69.88"/>
<text text-anchor="start" x="302" y="-57.33" font-family="Helvetica,sans-Serif" font-size="9.00">nonceRetry.ts</text>
</a>
</g>
</g>
<!-- src/core/transactionProcessor.ts&#45;&gt;src/core/nonceRetry.ts -->
<g id="edge24" class="edge">
<title>src/core/transactionProcessor.ts&#45;&gt;src/core/nonceRetry.ts</title>
<path fill="none" stroke="#000000" stroke-width="2" stroke-opacity="0.200000" d="M257.81,-81.67C267.54,-78.85 278.36,-75.71 288.57,-72.76"/>
<polygon fill="#000000" fill-opacity="0.200000" stroke="#000000" stroke-width="2" stroke-opacity="0.200000" points="288.88,-74.85 294.06,-71.16 287.71,-70.82 288.88,-74.85"/>
</g>
<!-- src/core/signer.ts -->
<g id="node11" class="node">
<title>src/core/signer.ts</title>
<g id="a_node11"><a xlink:href="src/core/signer.ts" xlink:title="signer.ts">
<path fill="#ddfeff" stroke="black" d="M351.21,-129.88C351.21,-129.88 309.04,-129.88 309.04,-129.88 306.08,-129.88 303.12,-126.92 303.12,-123.96 303.12,-123.96 303.12,-118.04 303.12,-118.04 303.12,-115.08 306.08,-112.12 309.04,-112.12 309.04,-112.12 351.21,-112.12 351.21,-112.12 354.17,-112.12 357.12,-115.08 357.12,-118.04 357.12,-118.04 357.12,-123.96 357.12,-123.96 357.12,-126.92 354.17,-129.88 351.21,-129.88"/>
<text text-anchor="start" x="312.88" y="-117.33" font-family="Helvetica,sans-Serif" font-size="9.00">signer.ts</text>
</a>
</g>
</g>
<!-- src/core/transactionProcessor.ts&#45;&gt;src/core/signer.ts -->
<g id="edge25" class="edge">
<title>src/core/transactionProcessor.ts&#45;&gt;src/core/signer.ts</title>
<path fill="none" stroke="#000000" stroke-width="2" stroke-opacity="0.200000" d="M260.35,-100.37C266.96,-102.2 273.83,-104.13 280.25,-106 284.83,-107.33 289.64,-108.77 294.39,-110.2"/>
<polygon fill="#000000" fill-opacity="0.200000" stroke="#000000" stroke-width="2" stroke-opacity="0.200000" points="293.54,-112.14 299.89,-111.88 294.77,-108.12 293.54,-112.14"/>
</g>
<!-- src/core/broadcaster.ts&#45;&gt;src/types/schema.ts -->
<g id="edge8" class="edge">
<title>src/core/broadcaster.ts&#45;&gt;src/types/schema.ts</title>
<path fill="none" stroke="#000000" stroke-width="2" stroke-opacity="0.200000" d="M356.85,-100.31C360.38,-101.99 363.86,-103.89 367,-106 373.79,-110.55 372.79,-115.16 380,-119 416.88,-138.62 438.14,-112.88 472.25,-137 491.85,-150.86 504.05,-176.54 510.4,-193.7"/>
<polygon fill="#000000" fill-opacity="0.200000" stroke="#000000" stroke-width="2" stroke-opacity="0.200000" points="508.27,-193.95 512.21,-198.93 512.24,-192.57 508.27,-193.95"/>
</g>
<!-- src/core/broadcaster.ts&#45;&gt;src/utils/errors.ts -->
<g id="edge9" class="edge">
<title>src/core/broadcaster.ts&#45;&gt;src/utils/errors.ts</title>
<path fill="none" stroke="#000000" stroke-width="2" stroke-opacity="0.200000" d="M360.78,-100.22C363.13,-101.85 365.26,-103.76 367,-106 391.75,-137.95 354.52,-164.63 380,-196 382.04,-198.51 384.53,-200.59 387.27,-202.33"/>
<polygon fill="#000000" fill-opacity="0.200000" stroke="#000000" stroke-width="2" stroke-opacity="0.200000" points="385.96,-204.02 392.26,-204.82 387.83,-200.27 385.96,-204.02"/>
</g>
<!-- src/core/broadcaster.ts&#45;&gt;src/core/networkConfig.ts -->
<g id="edge10" class="edge">
<title>src/core/broadcaster.ts&#45;&gt;src/core/networkConfig.ts</title>
<path fill="none" stroke="#000000" stroke-width="2" stroke-opacity="0.200000" d="M367.47,-91C368.6,-91 369.73,-91 370.87,-91"/>
<polygon fill="#000000" fill-opacity="0.200000" stroke="#000000" stroke-width="2" stroke-opacity="0.200000" points="370.6,-93.1 376.6,-91 370.6,-88.9 370.6,-93.1"/>
</g>
<!-- src/core/nonceRetry.ts&#45;&gt;src/types/schema.ts -->
<g id="edge16" class="edge">
<title>src/core/nonceRetry.ts&#45;&gt;src/types/schema.ts</title>
<path fill="none" stroke="#000000" stroke-width="2" stroke-opacity="0.200000" d="M359.48,-70.32C362.22,-71.94 364.79,-73.82 367,-76 377.34,-86.21 368.49,-97.13 380,-106 412.86,-131.3 438.92,-95.33 472.25,-120 496.19,-137.72 507.57,-172.02 512.52,-193.08"/>
<polygon fill="#000000" fill-opacity="0.200000" stroke="#000000" stroke-width="2" stroke-opacity="0.200000" points="510.42,-193.32 513.73,-198.75 514.53,-192.45 510.42,-193.32"/>
</g>
<!-- src/core/nonceRetry.ts&#45;&gt;src/utils/logger.ts -->
<g id="edge17" class="edge">
<title>src/core/nonceRetry.ts&#45;&gt;src/utils/logger.ts</title>
<path fill="none" stroke="#000000" stroke-width="2" stroke-opacity="0.200000" d="M360.75,-70.24C363.11,-71.87 365.25,-73.77 367,-76 390.04,-105.38 358.38,-128.56 380,-159 382.16,-162.05 384.88,-164.71 387.88,-167.03"/>
<polygon fill="#000000" fill-opacity="0.200000" stroke="#000000" stroke-width="2" stroke-opacity="0.200000" points="386.57,-168.67 392.74,-170.18 388.85,-165.15 386.57,-168.67"/>
</g>
<!-- src/core/signer.ts&#45;&gt;src/types/schema.ts -->
<g id="edge18" class="edge">
<title>src/core/signer.ts&#45;&gt;src/types/schema.ts</title>
<path fill="none" stroke="#000000" stroke-opacity="0.200000" d="M357.46,-129.26C364.74,-131.49 372.67,-133.88 380,-136 420.81,-147.79 436.24,-138.47 472.25,-161 486.29,-169.78 498.32,-184.47 506.17,-195.66"/>
<polygon fill="none" stroke="#000000" stroke-opacity="0.200000" points="504.35,-196.72 509.45,-200.52 507.83,-194.37 504.35,-196.72"/>
</g>
<!-- src/core/signer.ts&#45;&gt;src/utils/errors.ts -->
<g id="edge19" class="edge">
<title>src/core/signer.ts&#45;&gt;src/utils/errors.ts</title>
<path fill="none" stroke="#000000" stroke-width="2" stroke-opacity="0.200000" d="M339.24,-130.04C347.02,-138.98 358.75,-153.29 367,-167 374.28,-179.1 369.66,-186.38 380,-196 382.11,-197.97 384.51,-199.68 387.05,-201.17"/>
<polygon fill="#000000" fill-opacity="0.200000" stroke="#000000" stroke-width="2" stroke-opacity="0.200000" points="385.95,-202.98 392.27,-203.7 387.78,-199.2 385.95,-202.98"/>
</g>
<!-- src/index.ts -->
<g id="node12" class="node">
<title>src/index.ts</title>
<g id="a_node12"><a xlink:href="src/index.ts" xlink:title="index.ts">
<path fill="#ddfeff" stroke="black" d="M150.08,-242.88C150.08,-242.88 107.92,-242.88 107.92,-242.88 104.96,-242.88 102,-239.92 102,-236.96 102,-236.96 102,-231.04 102,-231.04 102,-228.08 104.96,-225.12 107.92,-225.12 107.92,-225.12 150.08,-225.12 150.08,-225.12 153.04,-225.12 156,-228.08 156,-231.04 156,-231.04 156,-236.96 156,-236.96 156,-239.92 153.04,-242.88 150.08,-242.88"/>
<text text-anchor="start" x="113.25" y="-230.32" font-family="Helvetica,sans-Serif" font-size="9.00">index.ts</text>
</a>
</g>
</g>
<!-- src/index.ts&#45;&gt;src/types/schema.ts -->
<g id="edge30" class="edge">
<title>src/index.ts&#45;&gt;src/types/schema.ts</title>
<path fill="none" stroke="#000000" stroke-width="2" stroke-opacity="0.200000" d="M145.98,-243.22C197.32,-271.49 361.16,-351.32 472.25,-287 494.57,-274.08 506.46,-244.95 511.94,-226.74"/>
<polygon fill="#000000" fill-opacity="0.200000" stroke="#000000" stroke-width="2" stroke-opacity="0.200000" points="515.55,-221.66 511.91,-226.87 511.51,-220.53 515.55,-221.66"/>
</g>
<!-- src/index.ts&#45;&gt;src/utils/errors.ts -->
<g id="edge31" class="edge">
<title>src/index.ts&#45;&gt;src/utils/errors.ts</title>
<path fill="none" stroke="#000000" stroke-width="2" stroke-opacity="0.200000" d="M156.22,-242.45C160.46,-243.51 164.82,-244.42 169,-245 217.98,-251.78 231.15,-250.84 280.25,-245 317.84,-240.53 359.9,-229.57 388.19,-221.29"/>
<polygon fill="#000000" fill-opacity="0.200000" stroke="#000000" stroke-width="2" stroke-opacity="0.200000" points="394.36,-221.66 388.01,-221.35 393.17,-217.63 394.36,-221.66"/>
</g>
<!-- src/index.ts&#45;&gt;src/core/keyManager.ts -->
<g id="edge27" class="edge">
<title>src/index.ts&#45;&gt;src/core/keyManager.ts</title>
<path fill="none" stroke="#000000" stroke-width="2" stroke-opacity="0.200000" d="M133.05,-224.77C140.92,-201.21 161.76,-140.3 169,-134 172.16,-131.25 175.79,-129.06 179.65,-127.32"/>
<polygon fill="#000000" fill-opacity="0.200000" stroke="#000000" stroke-width="2" stroke-opacity="0.200000" points="186.13,-127.1 179.78,-127.27 184.64,-123.17 186.13,-127.1"/>
</g>
<!-- src/index.ts&#45;&gt;src/core/transactionProcessor.ts -->
<g id="edge29" class="edge">
<title>src/index.ts&#45;&gt;src/core/transactionProcessor.ts</title>
<path fill="none" stroke="#000000" stroke-width="2" stroke-opacity="0.200000" d="M133.48,-224.85C138.75,-210.81 148.9,-183.05 156,-159 162.87,-135.74 152.09,-123.38 169,-106 169.55,-105.44 170.12,-104.89 170.7,-104.37"/>
<polygon fill="#000000" fill-opacity="0.200000" stroke="#000000" stroke-width="2" stroke-opacity="0.200000" points="176.83,-102.46 170.75,-104.33 174.34,-99.08 176.83,-102.46"/>
</g>
<!-- src/index.ts&#45;&gt;src/core/broadcaster.ts -->
<g id="edge26" class="edge">
<title>src/index.ts&#45;&gt;src/core/broadcaster.ts</title>
<path fill="none" stroke="#000000" stroke-width="2" stroke-opacity="0.200000" d="M152.04,-224.67C184.17,-210.06 244,-178.96 280.25,-136 289.62,-124.89 282.91,-116.21 293.25,-106 293.8,-105.45 294.38,-104.93 294.97,-104.42"/>
<polygon fill="#000000" fill-opacity="0.200000" stroke="#000000" stroke-width="2" stroke-opacity="0.200000" points="301.17,-102.61 295.06,-104.36 298.74,-99.18 301.17,-102.61"/>
</g>
<!-- src/index.ts&#45;&gt;src/core/signer.ts -->
<g id="edge28" class="edge">
<title>src/index.ts&#45;&gt;src/core/signer.ts</title>
<path fill="none" stroke="#000000" stroke-width="2" stroke-opacity="0.200000" d="M156.23,-242.66C189.47,-251.81 246.48,-261.15 280.25,-231 312.7,-202.03 265.96,-167.87 293.25,-134 294.38,-132.6 295.67,-131.35 297.08,-130.24"/>
<polygon fill="#000000" fill-opacity="0.200000" stroke="#000000" stroke-width="2" stroke-opacity="0.200000" points="303.24,-128.88 297.04,-130.26 301.03,-125.31 303.24,-128.88"/>
</g>
</g>
</svg>
